<?xml version="1.0" encoding="utf-8"?>
<!-- Generator: Adobe Illustrator 21.1.0, SVG Export Plug-In . SVG Version: 6.00 Build 0)  -->
<svg version="1.1" id="Layer_1" xmlns="http://www.w3.org/2000/svg" xmlns:xlink="http://www.w3.org/1999/xlink" x="0px" y="0px"  width="175.42mm" height="80.87mm"
	 viewBox="0 0 497.3 229.2" style="enable-background:new 0 0 497.3 229.2;" xml:space="preserve">
<style type="text/css">
	.st0{fill:#FFFFFF;}
</style>
<title>logo_ff</title>
<rect x="246.8" class="st0" width="2.4" height="229.2"/>
<path class="st0" d="M16.9,143.8l10.5-2.1l-0.5-2.1l-10.5,2.1c-1.9,0.5-3.8-0.7-4.3-2.6c-0.5-1.9,0.7-3.8,2.6-4.3H15l10.5-2.1
	l-0.5-2.1l-10.5,2.1c-2.9,0.5-4.9,3.3-4.5,6.2v0.5c0.5,2.9,3.3,4.9,6.2,4.5H16.9z"/>
<polygon class="st0" points="31.9,155.2 20.2,159.5 29.5,148.3 28.6,146.1 13.5,151.6 14.3,153.5 26,149.5 16.9,160.5 17.6,162.6 
	32.6,157.1 "/>
<rect x="20.3" y="165.2" transform="matrix(0.8935 -0.449 0.449 0.8935 -71.6597 30.3972)" class="st0" width="16" height="2.1"/>
<polygon class="st0" points="42.9,175.5 30,178.9 38.4,168.3 37.2,166.7 26.9,180 27.6,181.2 44.1,177.2 "/>
<polygon class="st0" points="40.8,187.2 45.3,192.2 46.7,191 42.2,186 46,182.4 50.6,187.7 52,186.5 46,179.6 34.1,190.1 40,197 
	41.2,195.8 36.7,190.6 "/>
<path class="st0" d="M59.4,193.2l-4.3-3.6l-10.3,12.2l1.7,1.4l3.3-3.8l2.6,2.1l-1,6l1.9,1.4l1-6.4c2.8,1,5.9-0.5,6.9-3.3
	c0,0,0,0,0,0l0,0C61.9,197,61.1,194.6,59.4,193.2z M58.4,199.6c-1.2,1.4-3.2,1.7-4.8,0.7h-0.2l-2.6-2.4l4.5-5.5l2.6,2.4
	c1.4,0.9,1.9,2.7,1,4.1C58.8,199.2,58.6,199.4,58.4,199.6C58.7,199.4,58.7,199.6,58.4,199.6z"/>
<path class="st0" d="M70.8,201.1c-2-1.4-4.7-1-6.2,1c0,0.2-0.2,0.2-0.2,0.5c-1.7,2.6,0.2,4.5,2.1,6.7c1,1.2,2.1,2.4,1.2,4.1
	c-0.8,1.3-2.5,1.8-3.8,1c0,0,0,0,0,0l0,0c-0.1,0-0.2-0.1-0.2-0.2c-1.6-0.8-2.3-2.7-1.5-4.4c0,0,0,0,0,0v-0.2c0-0.1,0.1-0.2,0.2-0.2
	l-1.8-1.5c-1.6,2.3-1.1,5.4,1.2,7l0.2,0.1c0.2,0,0.2,0.2,0.5,0.2c2.1,1.6,5.1,1.2,6.7-1c0-0.2,0.2-0.2,0.2-0.5
	c1.7-2.6-0.2-5-2.1-6.9c-1.2-1.2-2.1-2.4-1.2-3.8c0.7-1.1,2.2-1.4,3.3-0.7c0,0,0,0,0,0l0,0c0.1,0,0.2,0.1,0.2,0.2
	c1.3,0.6,1.9,2.1,1.3,3.4v0.2c0,0.2-0.2,0.2-0.2,0.5l1.9,1c1.4-2.2,0.7-5.2-1.5-6.6c0,0,0,0,0,0h-0.2
	C71.3,201.1,71.1,201.1,70.8,201.1z"/>
<rect x="69.3" y="212.5" transform="matrix(0.3938 -0.9192 0.9192 0.3938 -149.4611 200.5337)" class="st0" width="16" height="2.1"/>
<polygon class="st0" points="94.5,210.9 84.5,208 84,209.7 87.8,210.9 84,224.5 85.9,224.9 90,211.6 93.8,212.8 "/>
<path class="st0" d="M100,211.8l-7.6,15l2.1,0.2l1.2-2.4l6.4,1l0.5,2.6l2.1,0.2l-3.3-16.7H100z M96.6,223l3.8-7.9l1.4,8.6L96.6,223z
	"/>
<path class="st0" d="M114.8,219.2c-1.7-0.5-3.1-1-3.1-2.6c0-1.7,1.2-2.4,2.9-2.6c1.5-0.1,2.9,0.9,3.1,2.4v0.5h2.1
	c0-2.6-2.1-4.8-4.8-4.8h-0.5c-2.4-0.2-4.5,1.6-4.8,4.1v0.5c0,3.1,2.6,3.8,5.5,4.5c1.4,0.5,3.1,1,3.1,2.9c0,1.6-1.2,2.8-2.8,2.9
	c0,0-0.1,0-0.1,0h-0.2c-1.8,0.2-3.5-1.1-3.8-2.9v-0.5h-2.1c0,2.9,2.4,5.2,5.3,5.3h0.5c2.6,0.3,5-1.6,5.2-4.3c0,0,0,0,0,0V224
	C120.3,220.6,117.4,219.9,114.8,219.2z"/>
<polygon class="st0" points="139.6,220.6 131.7,209.9 129.6,210.6 139.9,224.2 141.3,223.7 141.5,206.8 139.6,207.5 "/>
<rect x="147.7" y="204" transform="matrix(0.9024 -0.4308 0.4308 0.9024 -76.8005 84.7717)" class="st0" width="2.1" height="16"/>
<polygon class="st0" points="160.2,213 152.8,200.8 150.8,202 159.4,215.6 165.6,211.8 164.5,210.1 "/>
<polygon class="st0" points="167.1,190.1 175.2,199.4 161.6,194.9 159.9,196.3 170.2,208.5 171.9,207 163.7,197.7 177.3,202.3 
	179,200.8 168.8,188.6 "/>
<polygon class="st0" points="184,192.7 180.2,189.4 184.5,184.1 183.1,182.9 178.8,188.2 174.7,184.8 179.3,179.6 177.8,178.4 
	171.9,185.3 184.3,195.6 190,188.6 188.6,187.4 "/>
<polygon class="st0" points="185.2,166.7 196,173.1 181.6,172.9 180.5,174.8 194.1,183.2 195,181.2 184.5,174.8 198.8,175.3 
	200,173.1 186.4,164.8 "/>
<path class="st0" d="M203.1,155.7c-2.9-1.2-4.8,1-6.7,3.1c-1.2,1.2-2.1,2.4-3.6,1.7c-1.2-0.5-1.8-1.9-1.3-3.1v-0.2
	c0-0.1,0.1-0.2,0.2-0.2c0.5-1.4,2.1-2.3,3.6-1.9c0.2,0,0.2,0,0.5,0.2l0.7-1.9c-2.2-1.1-5-0.2-6.1,2.1l-0.1,0.3c0,0.2,0,0.2-0.2,0.5
	c-1.2,2-0.5,4.6,1.5,5.8c0,0,0,0,0,0l0.4,0.2c0.2,0,0.2,0.2,0.5,0.2c2.9,1.2,4.5-0.7,6.4-3.1c1-1.2,2.1-2.4,3.8-1.7
	c1.4,0.6,2.1,2.3,1.5,3.8l0,0c0,0.1-0.1,0.2-0.2,0.2c-0.6,1.7-2.5,2.7-4.3,2.1c-0.2,0-0.3-0.1-0.5-0.2l-0.7,1.9
	c2.6,1.2,5.7,0,6.9-2.6c0-0.2,0.2-0.2,0.2-0.5c1.3-2.2,0.5-5.1-1.7-6.4C203.7,155.7,203.4,155.7,203.1,155.7z"/>
<rect x="200.7" y="140.1" transform="matrix(0.2874 -0.9578 0.9578 0.2874 1.9353 298.7488)" class="st0" width="2.1" height="16"/>
<path class="st0" d="M209.1,132.1c-3.1-0.7-4.5,1.9-6,4.3c-0.7,1.4-1.7,2.6-3.3,2.4c-1.3-0.2-2.2-1.5-1.9-2.8c0,0,0,0,0,0v-0.3
	c0.2-1.5,1.6-2.6,3.1-2.4h0.5l0.5-2.1c-2.5-0.4-5,1.1-5.7,3.6v0.5c-0.7,2.3,0.7,4.8,3,5.5h0.6c3.1,0.5,4.3-1.7,5.7-4.3
	c0.7-1.4,1.7-2.9,3.3-2.4c1.6,0.3,2.6,1.8,2.4,3.3c0,0.2,0,0.2-0.2,0.5c-0.2,1.8-1.8,3.1-3.7,2.9h-0.6l-0.5,2.1
	c2.7,0.7,5.5-1,6.2-3.7c0,0,0,0,0,0v-0.6c0.9-2.4-0.3-5-2.7-5.9c0,0,0,0,0,0h-0.1C209.6,132.1,209.3,132.1,209.1,132.1z"/>
<path class="st0" d="M93.8,157.6c0.5,0.2,0.7,0,1-0.2c0.2-0.2,0-0.7-0.2-1h-0.2c-0.5-0.2-0.7,0-1,0.2c-0.2,0.2,0,0.7,0.2,1H93.8z"/>
<path class="st0" d="M169.9,126.3V62.8L52.2,62.6c0,25.6-0.2,51.6-0.2,76.9h69.7c1-4.5,6.7-10,3.8-15.3l-3.3-4.1
	c1-0.3,2-0.7,2.9-1.2l3.8,3.6c0.3,1.3,0.7,2.6,1.2,3.8c-1.6,2.9-2.9,6-3.6,9.3c-1.2,0.2-1.7,1.2-1.2,3.6h3.8
	c0.2-2.9,1.9-4.5,2.9-7.2c1.2-3.1,1.4-6.4,0-8.1c-2.6-2.1-5-4.5-7.9-6.9c-0.2,0-0.7-0.5-1-0.2c-0.2,0.2,0.5,1.2,1,1.4
	c-5.5,2.4-10.7,1.7-16.5,1c-0.1-1.2,0.1-2.4,0.5-3.6c0.7,0.9,1.3,1.8,1.7,2.9c0.9-1,1.7-2.1,2.4-3.3l3.3,3.6
	c0.2-2.7,0.7-5.3,1.4-7.9c2.4,0.5,5,1,7.4,1.2c0.2,1.4-0.2,3.8,1,3.8s0.7-2.9,0.5-3.8c1.3,0.2,2.7,0.2,4.1,0c0.2,1.4,0,3.6,1.2,3.3
	c1.2-0.2,0.5-2.4,0.5-3.6c1.2,0,2.4-0.2,3.6-0.7c-2.1,4.2-1.5,9.3,1.7,12.9l-3.3,11.9c-1.2,0.5-1.4,1.4-0.7,3.6h37
	C169.9,136.1,169.9,130.9,169.9,126.3z M105.2,70.9l0.7-3.6l1,3.6l18.1-0.7l5,1.4l-5,1.2h-18.1l-0.5,3.8l-1-3.3h-0.7
	c0.3-0.8,0.2-1.7-0.2-2.4L105.2,70.9z M95.7,108.9c2.1-1,4.4-1.4,6.7-1.2c0.2,0.5,0.3,0.9,0.2,1.4c-2.6,0.1-5.2,0.6-7.6,1.4
	C94.9,109.9,95.2,109.3,95.7,108.9z M95.2,102.7c3.1-2.5,6.7-4.4,10.5-5.5c0.2,0,0.5,0.2,0.7,0.2c-4.4,1.8-8.2,4.9-11,8.8
	C95.2,105.1,95.2,103.9,95.2,102.7z M96.4,107c2.4-3.9,6-6.9,10.3-8.6c0,1.2,0.5,2.4,1.4,3.1l-3.3,3.3l-2.1,1.7
	C100.5,106.4,98.4,106.6,96.4,107z M111.4,84.5c1.8-2.3,2-5.6,0.5-8.1c1.7-0.4,3.4-0.3,5,0.2c0.5,2.3,0,4.6-1.4,6.4l1,1.4
	c-1.2,0.3-2.4,0.5-3.6,0.5c0,1.3,0,2.6,0.2,3.8c-1,0.2-2.1,0.5-3.3,0.7C109.8,87.7,110.4,86,111.4,84.5z M111,83.1
	c-1.2-1.4-1.7-3.2-1.4-5c0-0.7,0.5-1.3,1.2-1.4C112.2,77.6,112.4,82.4,111,83.1z M113.4,89.8c0.3,1.6,0.7,3.2,1.2,4.8
	c-1,0.2-2.6,1-4.1,1.4c-0.5-1.7-0.7-3.5-0.7-5.3C111,90.6,112.2,90.2,113.4,89.8z M115,95.8c0.2,0.6,0.5,1.2,1,1.7
	c-2.5,1-4.9,2.2-7.2,3.6c-0.7-0.7-1.7-2.1-0.7-2.9L115,95.8z M104.8,106.3l3.3,2.4v0.5l-4.5-0.2c0-0.5-0.2-1.2-0.2-1.7
	C103.8,107,104.3,106.5,104.8,106.3z M105.7,105.5c2.8-3.3,6.4-5.7,10.5-7.2c0.7,1.1,1.5,2.2,2.4,3.1c-0.9,1-2,1.8-3.3,2.1
	c-2.4,1.2-5.5,4.1-6.4,4.5L105.7,105.5z M114.1,86l9.6-1.4c1.4,3.6,1.9,14.3-1.9,17.7C117.4,100.1,114.3,91.7,114.1,86z M102.4,70.9
	c0.9,0.2,1.5,1,1.4,1.9c-0.1,0.6-0.4,1.2-0.7,1.7c0,1.7,0.5,5.7,0.7,8.4l6.4,2.6c-0.5,1-0.9,2-1,3.1l-8.4-3.6c0-3.6,0-6.9,0.2-10.5
	c-0.7-0.7-0.9-1.7-0.5-2.6C101,71.2,101.7,70.8,102.4,70.9z M98.1,72.1c0.2-0.2,0.7-0.5,1-0.2c0.2,0.4,0.2,0.8,0,1.2
	c-0.3,0.2-0.7,0.2-1,0l0,0c-0.3-0.1-0.4-0.4-0.3-0.6C97.8,72.3,97.9,72.2,98.1,72.1z M100.9,91.9c1.5,1.3,2.8,2.8,3.8,4.5
	c-0.6,0-1.2,0.2-1.7,0.5c-1.4-2.5-3.6-4.6-6.2-5.7l0.5,1c2,1.2,3.6,2.9,4.5,5c-2.6,1-5.1,2.4-7.2,4.3c0-1.4,0.1-2.7,0.2-4.1
	c1-2.4,1.4-5-1.4-6.7c-0.7-0.3-1.4-0.4-2.1-0.5c0-0.8,0-1.6-0.2-2.4C94.7,88.3,98.1,89.7,100.9,91.9z M93.8,99.3h-1.4l-0.7-7.4
	c1.3,0,2.4,0.8,2.9,1.9C95,95,93.5,97.9,93.8,99.3z M91.4,103.6c-1.3,0.1-2.5-0.8-2.6-2.1c0-0.1,0-0.2,0-0.3
	c1.5-0.5,3.2-0.7,4.8-0.5C93.8,102.4,93.1,103.6,91.4,103.6z M91.4,99.3c-1,0.1-1.9,0.2-2.9,0.5l-0.2-0.2l-1.7-6.9
	c1.1-0.7,2.3-1.1,3.6-1.2L91.4,99.3z M86.6,86.9c0.9,0.2,1.6,0.7,2.1,1.4h1.4c0.2,0.7,0.3,1.4,0.2,2.1c-1.4,0-2.7,0.4-3.8,1.2
	l-0.7-1.4c-1-1.4-0.5-1.2-1.2-1.9c0.8,0.2,1.7,0.5,2.4,1C86.8,88.5,86.6,87.7,86.6,86.9z M76.3,119.6c0.3-1.6,0.7-3.2,1.2-4.8
	c2.7-1.9,5.6-3.6,8.6-5c2.5-0.1,5,0.1,7.4,0.5c-0.2,0.7-0.2,1.7-0.5,2.4c-2.2-0.2-4.5-0.3-6.7-0.2c-2.5,0.8-4.9,2.1-6.9,3.8
	c-0.2,1.2,0,2.5,0.5,3.6C78.7,119.7,77.5,119.6,76.3,119.6z M82.1,121.5c-0.2,0.9-0.2,1.8,0,2.6c-0.9,0.2-1.7,0.3-2.6,0.2
	c-0.1-1.3,0.3-2.7,1-3.8c1.7-1.7,3.6-3.6,5.3-5c0.6-0.8,1.3-1.4,2.1-1.9l9.3-0.7v-0.2c-0.8-0.3-1.6-0.4-2.4-0.2l0.2-1
	c2.5-1,5.2-1.6,7.9-1.7c0,2.4,0,5-0.2,7.4c-3.3,0.7-9.6-1.4-13.6-1.2L82.1,121.5z M106.4,118c-0.2,0.9-0.2,1.9,0,2.9
	c0,1-1.7,1.2-2.9,1.4c-1.8,0.5-3.4,1.2-5,2.1c0.3-1.4,1.1-2.6,2.4-3.3c0.7-0.3,1.4-0.7,1.9-1.2c0.7-3.1,1-6.3,1-9.6
	c1,0,3.3,0.2,4.3,0.2C108.3,113.2,106.9,115.6,106.4,118z M116.5,107.9c-1.4,2.6-2.1,5.4-2.1,8.4l-2.9-2.9c-0.5,1-1.2,2.1-1.7,3.1
	c-0.2-0.5-1-1.4-1.4-2.1c0.7-1.6,0.9-3.5,0.5-5.3c2-1.7,4.2-3.2,6.4-4.5c2.1-0.7,3.6-1.4,4.1-2.4c0.5,0.5,1,0.7,1.4,1.2
	c-1.7,2.2-4.2,3.6-6.9,4.1C114.7,107.8,115.6,108,116.5,107.9z M117.2,109.6c0.2-0.8,0.5-1.6,1-2.4c1.2-0.5,2.2-1.2,3.1-2.1
	c1.3,1.6,2.2,3.5,2.4,5.5C121.4,110.6,119.3,110.3,117.2,109.6z M125.3,110.8c-0.5-2.5-1.5-4.8-2.9-6.9c1.5-0.3,3.1,0.3,4.1,1.4
	c1.4,1.5,2.3,3.4,2.6,5.5L125.3,110.8z M145.4,114.4c0.6,0.7,1,1.7,1.2,2.6c-0.8-0.7-1.8-1-2.9-1c0.4,0.9,0.5,1.9,0.2,2.9l0,0
	c-0.5-0.8-1-1.5-1.7-2.1c-1.7-1.7-1-4.5,0-7.2c0-1.2-0.5-2.1-1.7-2.1c-3.1,0.5-6,3.1-9.1,2.9c-1.2-2.4-1.7-6-4.8-7.2
	c3.4,0.3,6.5,2.1,8.4,5c2.9-2.4,6-5.3,10-4.1c1.3,0.6,2.2,1.7,2.4,3.1c0.2,2.4-1.2,5.5,1.4,7.6C147.5,115.6,146.3,114.1,145.4,114.4
	z"/>
<path class="st0" d="M165.9,142.1H52c0.4,13.7,5.5,27,14.3,37.5c23.4,27.7,69.2,27.2,91.5-2.1c7.9-10.1,12.2-22.5,12.2-35.3h-2.1
	c-0.2,7.7-1.9,15.2-5,22.2c-0.4,0.5-1,0.9-1.7,1c-2,0.7-4.1,1.3-6.2,1.7c-0.5,0.2-1.2,0.5-1.4,1c1.7,0,3.4-0.2,5-0.7
	c-0.6,0.4-1.3,0.8-1.9,1.2c-5.9,3.4-12.1,6.4-18.4,9.1c1-5.8,0.4-11.7-1.7-17.2c1.9-0.3,3.7-0.7,5.5-1.2c1.6,2.3,2.6,5,2.9,7.9
	c0.8-0.9,1.1-2.1,1-3.3c-0.5-1.8-1.2-3.6-2.1-5.3c1.7-0.9,3.4-1.7,5.3-2.4c1.7-0.4,3.4-1,5-1.7c-1.1-0.4-2.3-0.4-3.3,0
	c4.3-2.7,9-4.8,13.8-6.2c-0.2-0.7-2.6,0-3.3,0C163.3,146.6,164.9,144.5,165.9,142.1z M90.9,155.7V186c-0.3-0.4-0.7-0.8-1.2-1v-30.3
	c0-1,0.2-1.4,0.7-1.4c2.6-0.2,6.4-0.7,9.6-1.2s6.9-0.7,10.3-1.2c0.2-0.2,0.2-0.6,0-0.8h-0.2l-20.3,2.4c-0.5,0.2-1,0.7-1,1v31.4
	l-1.2-0.2c-0.2-9.6,0-20.5,0-30.8v-1.9c0.2-0.5,1.2-0.5,1.2-0.5c7.2-0.7,14.3-1.7,21.5-2.6c0.2,0,0.2-0.5,0-0.7
	c-6.9,0.7-15.3,1.4-22,2.1c-0.6,0-1.2,0.3-1.7,0.7c-0.2,0.5-0.3,1.1-0.2,1.7c0,10.5,0.5,21.5,0,32h-1c0-11-0.2-24.6-0.2-33.9
	c-0.2-1,0.5-1.7,1.4-1.9h0.2c8.8-0.7,14.1-1,21.3-1.9c2.1,0,3.8,0.2,4.8,1.7c0.6,0.9,0.3,2.2-0.6,2.8h-0.1c-0.2,0-0.2,0.2-0.5,0.2
	l-2.9,0.7l-16.7,1.9C91.6,154.3,91.1,155,90.9,155.7z M108.3,153.5v4.5h-1c-1.9-0.4-3.1-2.2-2.9-4.1
	C105.5,153.8,107.1,153.8,108.3,153.5L108.3,153.5z M91.9,156.4c0-0.7,0-1.4,1-1.4s2.4-0.2,3.6-0.2c0,3.1-1.2,4.5-4.5,4.5
	C92,158.3,92,157.4,91.9,156.4L91.9,156.4z M93.5,189.1c-0.6-0.1-1.1-0.4-1.4-1v-4.1c1.1-0.1,2.2,0.3,3.1,1c1,1,1.6,2.4,1.7,3.8
	C95.7,188.9,94.7,189.1,93.5,189.1L93.5,189.1z M98.1,188.6c0-1.8-0.8-3.4-2.1-4.5c-1.1-0.8-2.5-1.1-3.8-1l-0.2-22.7
	c2.7,0.4,5.2-1.4,5.7-4.1V155l5.7-0.7c-0.1,2.8,2.1,5.2,5,5.3c0,0,0,0,0.1,0h0.3l0.7,22.4c-2.9,0.5-4.9,3.1-4.8,6v0.2L98.1,188.6z
	 M105.5,187.7c-0.4-2.2,0.9-4.3,3.1-4.8h0.2c0,0,0.2,4.3,0.2,4.5C107.9,187.4,106.7,187.7,105.5,187.7L105.5,187.7z M109.5,153.3
	c1.4-0.1,2.7-0.7,3.6-1.7c0.4,0.9,0.1,1.9-0.7,2.4c0,0,0,0-0.1,0h-0.1c-0.8,0.6-1.7,0.9-2.6,1C109.5,154.7,109.3,153.5,109.5,153.3
	L109.5,153.3z M109.5,156.4c1.3,0,2.6-0.5,3.6-1.4v6.4c-0.5,1.4-1.9,1.7-3.6,2.1V156.4z M109.8,164.8c1.2-0.2,2.3-0.7,3.3-1.4
	c0.4,0.4,0.4,1.2,0,1.6c0,0,0,0,0,0l0,0c-1,0.8-2.3,1.2-3.6,1.2C109.5,165.7,109.6,165.2,109.8,164.8L109.8,164.8z M109.8,167.4
	c1.1-0.1,2.2-0.4,3.1-1v5.7l-3.1,1.7V167.4z M110.2,177.4c0.5,0,0.5,0,0.7,0.7c0.2,0.7,1,0.5,1.7,0.7c0.3,0.5,0.9,0.8,1.4,0.7v3.6
	c0,0.7-2.9,1.7-3.6,1.7L110.2,177.4z M113.6,186.3c-1,0.5-2,0.9-3.1,1V186c1.4-0.2,2.7-0.7,3.8-1.4
	C114.3,185.2,114,185.8,113.6,186.3z M137.2,177.4c-0.2,0.7-0.7,0.7-1,0.5c-1.2-2.1-1.9-4.5-2.1-6.9c1-0.9,2.1-1.7,3.3-2.1
	C137.6,171.7,137.6,174.6,137.2,177.4z M137.2,167.9c-5.7,2.4-9.3,8.8-16,9.8l3.6-2.1c0-0.3-0.2-0.5-0.5-0.5c-2,1.2-4,2.2-6.2,2.9
	l-3.8,0.7c-0.2,0-0.7,0-0.7-0.5c1-0.5,3.8-1.4,5.5-2.1c1.4-0.7,2.8-1.5,4.1-2.4c0-0.2,0-0.7-0.5-0.5c-1.2,0.7-2.6,1.4-3.8,2.1
	c-1.9,0.7-3.6,1.4-5.5,2.1c-0.5,0.2-1,0.1-1.4-0.2c-0.2-0.2,0-0.2,0.7-0.7c1.7-0.6,3.4-1.3,5-2.1c1.5-0.8,2.9-1.7,4.3-2.6
	c0-0.2,0-0.5-0.5-0.5c-3,1.9-6.2,3.3-9.6,4.3c-0.5,0.2-1.1,0.3-1.7,0.2v-1l5-2.6c1.4-0.7,2.8-1.6,4.1-2.6l3.8-3.3v-0.5
	c-2.7,0.7-5.6,0.7-8.4,0v-0.2c1.4-0.4,2.8-0.7,4.3-1c2.4-0.7,4.5-1.7,7.2-2.4c3.2-0.5,6.5-0.7,9.8-0.7
	C136.8,163.5,137.2,165.7,137.2,167.9z"/>
<path class="st0" d="M94.5,186c-0.5-0.2-1,0-1.2,0.5c-0.2,0.5,0,1,0.5,1.2c0.5,0.2,1,0,1.2-0.5C95.2,186.8,95,186.2,94.5,186
	L94.5,186z"/>
<path class="st0" d="M105.2,169.8c0-1.7-1.2-1.9-2.6-2.1c0-0.8-0.3-1.5-0.7-2.1c-1.7-1-4.1,0.2-3.3,2.4c-1,0.2-2.9,0.7-2.6,2.4
	c0.2,1.7,1.2,2.1,3.1,2.1c-0.1,1.4,0.9,2.7,2.4,2.9c1.4-0.2,1.7-1.7,1.7-3.3C104,171.7,105.5,171.2,105.2,169.8z M102.1,171.2
	c0,1.2,0.5,2.9-0.7,2.9c-1.7,0.2-1-1.9-1.4-2.6c-0.7-0.2-2.4,0.5-2.9-1c0.2-1.7,1.7-1.4,2.6-1.7c0-1.2-0.7-2.1,1-2.6
	c1.4,0.2,1,1.4,1,2.1c1,0,2.6-0.2,2.6,1.2S103.1,170.7,102.1,171.2z"/>
<path class="st0" d="M121.9,97.9c-0.3-0.9-0.4-1.9-0.5-2.9c1,0,1.4-0.2,2.1-0.2l-0.2-1.7c-0.7,0.2-1,0.2-1.9,0.5
	c-0.2-1-0.2-1.7-0.5-2.9l2.1-0.2v-1.4c-0.5,0.2-1.7,0.2-2.1,0.5c-0.2-1-0.2-2.1-0.5-3.1c-0.2,0-1.4,0.2-1.7,0.2
	c0.2,1,0.5,1.9,0.7,3.1c-0.7,0-1.2,0.2-2.1,0.2l0.2,1.4c0.8-0.3,1.6-0.4,2.4-0.5c0.2,1.2,0.2,1.9,0.5,2.9c-0.7,0.2-1.4,0.3-2.1,0.2
	l0.2,1.7c0.7-0.2,1.4-0.2,2.1-0.5v3.1C120.8,98.1,121.5,98.1,121.9,97.9z"/>
<path class="st0" d="M107.9,185.1c-0.4-0.3-0.9-0.2-1.2,0.2c-0.3,0.4-0.2,0.9,0.2,1.2l0,0l0,0c0.1,0,0.2,0.1,0.2,0.2
	C108.1,187,108.8,185.5,107.9,185.1z"/>
<path class="st0" d="M89.7,95c0.2-0.4,0.1-0.9-0.2-1.2c-0.5,0-0.5-0.2-1,0c-0.2,0.4-0.2,0.8,0,1.2C89.2,95.5,89.5,95.5,89.7,95z"/>
<path class="st0" d="M106.4,156.4c0.5,0,0.7,0,1-0.5c0.2-0.5,0-0.7-0.5-1C106,154.5,105.7,156.2,106.4,156.4z"/>
<polygon class="st0" points="25,94.3 10.2,86.2 10,88.4 21.7,94.6 8.5,96.5 8,98.6 24.8,96 "/>
<rect x="18.3" y="74.1" transform="matrix(0.2708 -0.9626 0.9626 0.2708 -64.9383 78.5722)" class="st0" width="2.1" height="16"/>
<polygon class="st0" points="31.9,71.6 30.3,70.9 28.3,75.7 15.2,70.7 14.3,72.6 29.3,78.3 "/>
<polygon class="st0" points="34.1,66.9 23.3,60.9 37.7,60.7 38.6,58.5 24.5,50.9 23.6,52.8 34.6,58.5 20.2,59 19,61.1 33.1,68.8 "/>
<rect x="34.6" y="41" transform="matrix(0.5761 -0.8173 0.8173 0.5761 -24.8967 49.9142)" class="st0" width="2.1" height="16"/>
<path class="st0" d="M46,48.5l-1.2-2.4l4.3-4.8l2.4,1l1.4-1.7l-15.8-6.4l-1,1.2l8.4,14.8L46,48.5z M39.1,37l7.9,3.6l-3.3,3.8
	L39.1,37z"/>
<path class="st0" d="M58.7,36.1c2.4-1.8,2.8-5.2,1.1-7.5l0,0l-0.2-0.2l-7-8.5l-1.7,1.4l6.9,8.4c1.3,1.5,1,3.8-0.5,5
	c-1.5,1.3-3.8,1-5-0.5l0,0l0,0l-6.9-8.4L43.9,27l6.9,8.4c1.8,2.4,5.2,2.8,7.5,1.1l0,0c-0.1-0.1-0.1-0.3,0-0.3S58.6,36,58.7,36.1z"/>
<path class="st0" d="M66.5,21.3c1.4-0.5,3.1-0.7,4.1,1c0.7,1.3,0.3,3-1,3.8c-0.1,0-0.2,0.1-0.2,0.2v0l0,0c-1.5,1-3.6,0.7-4.8-0.7
	c0-0.2-0.2-0.2-0.2-0.5l-1.9,1.2c1.3,2.6,4.5,3.5,7,2.2c0,0,0,0,0,0h0.1c0.2,0,0.2-0.2,0.5-0.2c2.4-1,3.6-3.8,2.6-6.2
	c0-0.2-0.2-0.5-0.2-0.7c-1.7-2.6-4.5-2.1-7.2-1.4c-1.7,0.5-3.1,0.7-4.1-0.7c-0.7-1.1-0.3-2.6,0.8-3.3h0.1c0.1,0,0.2-0.1,0.2-0.2
	c0,0,0,0,0,0l0,0c1.3-0.9,3-0.5,3.8,0.7c0,0,0,0,0,0l0,0c0,0.2,0.2,0.2,0.2,0.5l1.9-1.2c-1.3-2.3-4.1-3.2-6.4-1.9
	c-0.2,0-0.2,0.2-0.5,0.2c-2.2,1.1-3.1,3.7-2.1,6c0,0.2,0.2,0.2,0.2,0.5C61.3,22.4,63.9,22,66.5,21.3z"/>
<path class="st0" d="M90,19.3c3-0.7,4.8-3.7,4.1-6.7v-0.2L91.1,1.9l-1.9,0.5l2.9,10.5c0.7,1.8-0.3,3.8-2.1,4.5
	c-1.8,0.7-3.8-0.3-4.5-2.1c-0.1-0.2-0.1-0.3-0.1-0.5L82.5,4.3l-1.9,0.5l2.9,10.5C84.2,18.2,87.1,20,90,19.3z"/>
<polygon class="st0" points="100.7,16.7 99.7,4.3 107.9,16.2 110.2,16 108.8,0 106.7,0.2 107.9,12.4 99.5,0.7 97.4,1 98.5,17 "/>
<rect x="108" y="7.2" transform="matrix(5.982905e-02 -0.9982 0.9982 5.982905e-02 100.7904 123.6283)" class="st0" width="16" height="2.1"/>
<polygon class="st0" points="126.5,17.7 135.1,3.1 132.9,2.6 126.5,14.3 124.8,1.2 122.7,0.7 125.1,17.4 "/>
<polygon class="st0" points="142.5,22.7 143.2,21 136.8,18.6 138.4,13.6 144.9,16 145.6,14.3 139.1,11.9 141.1,6.9 147.5,9.3 
	148.2,7.6 139.6,4.5 134.1,19.6 "/>
<path class="st0" d="M147.7,25.3l2.6-4.5l2.9,1.7l0.2,6l2.1,1.2l-0.2-6.4c2.3,0.4,4.5-0.7,5.7-2.6c1.5-2.6,0.6-5.9-1.9-7.4
	c-0.1,0-0.2-0.1-0.2-0.2l-5.3-2.6l-7.9,13.8L147.7,25.3z M154.7,12.9l3.1,1.7c1.6,0.9,2.1,2.8,1.3,4.4c0,0,0,0,0,0v0.1v0.2
	c-0.7,1.6-2.7,2.3-4.3,1.6l-0.3-0.1c-0.1,0-0.2-0.1-0.2-0.2l-3.1-1.4L154.7,12.9z"/>
<path class="st0" d="M160.6,27c-1.9,2.2-1.7,5.5,0.5,7.4c0.2,0.2,0.2,0.2,0.5,0.2c1.8,1.8,4.7,1.9,6.5,0.2c0,0,0,0,0,0l0.2-0.2
	l0.5-0.5c1.9-2.4,0.5-4.8-1.2-7.2c-1-1.4-1.7-2.6-0.7-4.1c0.9-1,2.5-1.1,3.6-0.2l0.2,0.2c1.3,0.9,1.6,2.6,0.7,3.8c0,0,0,0,0,0l0,0
	c0,0.2-0.2,0.2-0.2,0.5l1.7,1.4c1.7-2,1.5-5-0.5-6.7l-0.2-0.2c-1.7-1.7-4.5-1.7-6.2,0l-0.2,0.2c-1.9,2.4-0.5,4.5,1.2,6.9
	c1,1.2,1.7,2.6,0.5,4.1c-1,1.2-2.8,1.4-4.1,0.5l-0.2-0.2c-1.5-1.1-1.9-3.2-1-4.8c0-0.2,0.2-0.2,0.2-0.5L160.6,27z"/>
<rect x="167.3" y="34.9" transform="matrix(0.7129 -0.7013 0.7013 0.7129 25.1149 133.2578)" class="st0" width="16" height="2.1"/>
<polygon class="st0" points="175.4,48 176.6,49.7 187.9,40.8 190.5,44.2 191.9,43 185.2,34.9 183.8,36.1 186.4,39.2 "/>
<polygon class="st0" points="185.7,63 187.4,62.1 183.8,56.1 188.1,53.5 191.7,59.5 193.3,58.5 189.8,52.5 194.1,49.9 197.6,55.6 
	199.3,54.7 194.8,47 180.9,55.4 "/>
<polygon class="st0" points="188.8,69.5 189.5,71.4 202.4,65.7 204.3,69.5 206,68.5 201.7,59.2 200,59.9 201.7,63.8 "/>
<path class="st0" d="M192.2,77.6h2.6l1.9,6.2l-2.1,1.7l0.7,2.1l13.6-10l-0.5-1.4l-17-0.5L192.2,77.6z M205.5,77.6l-7.2,5l-1.7-5
	H205.5z"/>
<path class="st0" d="M207.4,87.6c-2.9,0.7-3.3,3.1-3.6,6.2c-0.2,1.4-0.5,3.1-2.4,3.6c-1.6,0.3-3.1-0.8-3.3-2.4v-0.2
	c-0.5-1.8,0.6-3.6,2.4-4.1h0.5l-0.2-2.4c-2.8,0.5-4.8,3.1-4.5,6v0.5c0.2,2.6,2.4,4.6,5,4.5h0.5c3.1-0.5,3.6-3.3,3.8-6.2
	c0.2-1.7,0.5-3.1,2.1-3.3c1.3-0.3,2.6,0.6,2.8,1.9c0,0.1,0,0.2,0,0.3v0.2c0.5,1.4-0.3,2.9-1.7,3.3c0,0,0,0-0.1,0h-0.2h-0.5l0.5,2.1
	c2.6-0.5,4.4-2.9,4.1-5.5v-0.5c-0.2-2.4-2.3-4.2-4.8-4.1H207.4z"/>
<path class="st0" d="M94,50.9V37.7h-1.7c0,1.7-0.5,2.1-2.9,2.1v1.4h2.6v9.6L94,50.9z"/>
<polygon class="st0" points="112.6,50.9 114.3,50.9 120.3,37.5 112.2,37.5 112.2,39.2 117.9,39.2 "/>
<path class="st0" d="M127.4,50.9l4.1-6.4c0.5-0.8,0.7-1.7,0.7-2.6c0-2.5-2-4.5-4.5-4.5c-2.5,0-4.5,2-4.5,4.5c0,2.5,2,4.5,4.5,4.5
	l0,0c0.3,0,0.5-0.1,0.7-0.2l-3.1,4.8L127.4,50.9z M127.7,44.9c-1.6,0.1-3-1.2-3.1-2.9c-0.1-1.6,1.2-3,2.9-3.1c1.6-0.1,3,1.2,3.1,2.9
	V42c0.1,1.6-1,3-2.6,3.1C127.9,45,127.8,44.9,127.7,44.9C127.7,44.9,127.7,44.9,127.7,44.9z"/>
<circle class="st0" cx="81.4" cy="44.4" r="2.1"/>
<circle class="st0" cx="140.3" cy="44.7" r="2.1"/>
<circle class="st0" cx="16.9" cy="114.9" r="2.1"/>
<ellipse transform="matrix(0.7507 -0.6607 0.6607 0.7507 -24.3856 164.8896)" class="st0" cx="206.3" cy="114.8" rx="2.1" ry="2.1"/>
<path class="st0" d="M104.8,41.8c-1.2,0-2.4,0.5-3.1,1.4v-4.1h6.4v-1.7h-7.9v7.4h1.7c0.6-1.4,2.3-2.1,3.8-1.5l0,0
	c1,0.6,1.7,1.7,1.7,2.9c0.1,1.5-0.9,2.9-2.4,3.1h-0.5c-1.2,0.2-2.3-0.5-2.6-1.7h-1.7c0.4,2,2.2,3.4,4.3,3.3c2.4,0,4.4-1.9,4.5-4.3
	v-0.5c0.1-2.2-1.6-4.1-3.8-4.3C105.1,41.9,104.9,41.8,104.8,41.8z"/>
<path class="st0" d="M290.8,124.9v2.1h4.8v5h-4.8v15.5h-6.7v-15.5h-3.8v-5.3h3.8v-1.9c-0.4-3.9,2.5-7.3,6.3-7.6c0,0,0,0,0,0h1.1
	c1.3,0,2.6,0.2,3.8,0.5v4.8h-1.9C292.4,122,290.8,122.5,290.8,124.9z"/>
<path class="st0" d="M297,137.1c0-6.2,3.8-11,9.8-11c2.6-0.1,5.1,1.3,6.4,3.6v-3.1h6.4v20.8h-6.4v-2.9c-1.5,2.3-4,3.6-6.7,3.6
	C300.6,148,297,143.3,297,137.1z M313.7,137.1c0.2-2.8-1.9-5.2-4.7-5.4c-2.7-0.2-5.1,1.8-5.4,4.4v1c-0.2,2.8,1.8,5.2,4.5,5.5h0.5
	c2.7,0,4.9-2.1,5-4.8V137.1z"/>
<path class="st0" d="M338.5,147.6l-6.7-9.1v9.1h-6.7v-30.1h6.7v17.9l6.7-8.6h7.6l-8.4,9.8l8.4,11H338.5z"/>
<path class="st0" d="M349,139.7v-12.9h6.7v11.5c0,2.9,1,4.3,3.3,4.3c2.3,0,4.1-1.9,4.1-4.2c0,0,0,0,0,0c0,0,0-0.2,0-0.3v-11.2h6.4
	v20.8h-6.4v-2.9c-1.2,2.4-3.8,3.8-6.4,3.6C351.7,148,349,144.9,349,139.7z"/>
<path class="st0" d="M375.3,117.4h6.7v30.1h-6.7V117.4z"/>
<path class="st0" d="M400.4,142.3v5.3c-1.4,0.2-2.9,0.3-4.3,0.2c-3.1,0-7.4-0.7-7.4-7.6v-8.4h-3.3v-5.3h3.3v-6.2h6.7v6.2h4.8v5.3
	h-4.8v6.9c0,3.1,1.2,3.6,2.9,3.6H400.4z"/>
<path class="st0" d="M424.3,139H409c0,2.4,1.9,4.3,4.3,4.3c0,0,0,0,0,0h0.5c1.5,0.2,3.1-0.6,3.8-1.9h6.4c-0.7,4.1-4.8,6.9-10.3,6.9
	c-7.2,0-11.5-4.1-11.5-11c-0.4-5.7,3.9-10.6,9.6-11h1.4c6.4,0,10.7,4.1,10.7,9.8C424.5,137,424.5,138,424.3,139z M418,134.9
	c0.2-2.2-1.4-4.1-3.6-4.3h-0.7c-2.2-0.3-4.3,1.3-4.5,3.6c0,0,0,0,0,0c0,0,0,0.1,0,0.2v0.5H418z"/>
<path class="st0" d="M441.4,142.3v5.3c-1.4,0.2-2.9,0.3-4.3,0.2c-3.1,0-7.4-0.7-7.4-7.6v-8.4h-3.3v-5.3h3.3v-6.2h6.7v6.2h4.8v5.3
	h-4.8v6.9c0,3.1,1.2,3.6,2.9,3.6H441.4z"/>
<path class="st0" d="M443.6,137.1c0-6.2,3.8-11,9.8-11c2.6-0.1,5.1,1.3,6.4,3.6v-3.1h6.4v20.8h-6.4v-2.9c-1.5,2.3-4,3.6-6.7,3.6
	C447.2,148,443.6,143.3,443.6,137.1z M460.1,137.1c0.3-2.8-1.8-5.2-4.6-5.5c-2.7-0.2-5.1,1.6-5.4,4.3v1.2c-0.2,2.8,1.8,5.2,4.5,5.5
	h0.5c2.7,0,4.9-2.1,5-4.8L460.1,137.1z"/>
<path class="st0" d="M470.3,141.4h6.4c0,1.4,1.4,2.4,3.3,2.4c1.4,0,2.4-0.7,2.4-1.9c0-0.8-0.6-1.6-1.4-1.7l-5-1.2
	c-3-0.4-5.3-2.9-5.3-6c0-3.8,3.3-6.7,8.8-6.7c6,0,9.3,2.6,9.3,6.4h-6.4c0-1.4-1.2-2.4-2.9-2.4c-1.7,0-2.4,0.7-2.4,1.7
	c0,0.9,0.7,1.7,1.7,1.9l5,1.4c2.9,0.5,5,2.8,5.3,5.7c0,4.3-3.3,7.2-9.1,7.2C474.4,148.3,470.3,145.2,470.3,141.4z"/>
<path class="st0" d="M303.2,77.6h-14.8v7.2h11.7v6h-11.7v12.4h-7.6V71.4h22.7v6.2H303.2z"/>
<path class="st0" d="M305.3,76.4c0-2.2,1.8-4.1,4.1-4.1c2.2,0,4.1,1.8,4.1,4.1c0,2.2-1.8,4.1-4.1,4.1l0,0l0,0
	c-2.1,0.1-4-1.6-4.1-3.7c0,0,0,0,0,0C305.3,76.7,305.3,76.5,305.3,76.4z M306.1,82.4h6.7v20.8h-6.7V82.4z"/>
<path class="st0" d="M327.2,92.6c-0.3-6.3,4.7-11.7,11-11.9c6.3-0.3,11.7,4.7,11.9,11c0.3,6.3-4.6,11.7-11,11.9h-0.5
	c-5.8,0.5-10.9-3.7-11.4-9.5c0,0,0,0,0,0L327.2,92.6L327.2,92.6z M343.7,92.6c-0.2-2.8-2.6-4.9-5.4-4.7c-2.8,0.2-4.9,2.6-4.7,5.4
	v0.2c0.3,2.8,2.8,4.7,5.6,4.4c2.4-0.3,4.3-2.2,4.4-4.6L343.7,92.6z"/>
<path class="st0" d="M351.3,96.7h6.4c0,1.4,1.4,2.4,3.3,2.4c1.4,0,2.4-0.7,2.4-1.9c0-0.8-0.6-1.6-1.4-1.7l-5-1.2
	c-3-0.4-5.3-2.9-5.3-6c0-3.8,3.3-6.7,8.8-6.7c6,0,9.3,2.6,9.3,6.4h-6.4c0-1.4-1.2-2.4-2.9-2.4c-1.7,0-2.4,0.7-2.4,1.7
	c0,0.9,0.7,1.7,1.7,1.9l5,1.4c2.9,0.5,5,2.8,5.3,5.7c0,4.3-3.3,7.2-9.1,7.2C355.4,103.7,351.3,100.8,351.3,96.7z"/>
<path class="st0" d="M317.4,73h6.7v30.1h-6.7V73z"/>
<path class="st0" d="M372.8,92.6c-0.3-6.3,4.7-11.7,11-11.9c6.3-0.3,11.7,4.7,11.9,11c0.3,6.3-4.6,11.7-11,11.9h-0.5
	c-5.8,0.5-10.9-3.7-11.4-9.5c0,0,0,0,0,0L372.8,92.6L372.8,92.6z M389.3,92.6c-0.2-2.8-2.6-4.9-5.4-4.7c-2.8,0.2-4.9,2.6-4.7,5.4
	v0.2c0.3,2.8,2.8,4.7,5.6,4.4c2.4-0.3,4.3-2.2,4.4-4.6L389.3,92.6z"/>
<path class="st0" d="M408.4,81v2.1h4.8v5h-4.8v15.5h-6.7V88.2h-3.8v-5.3h3.8V81c-0.4-3.9,2.5-7.3,6.3-7.6c0,0,0,0,0,0h1.1
	c1.3,0,2.6,0.2,3.8,0.5v4.8H411C410,78.1,408.4,78.6,408.4,81z"/>
<path class="st0" d="M416.3,76.9c0-2.2,1.8-4.1,4.1-4.1c2.2,0,4.1,1.8,4.1,4.1c0,2.2-1.8,4.1-4.1,4.1l0,0l0,0
	c-2.1,0.1-4-1.6-4.1-3.7c0,0,0,0,0,0C416.3,77.3,416.3,77,416.3,76.9z M417,82.9h6.7v20.8H417V82.9z"/>
<path class="st0" d="M439.5,92.6c-0.3-6.3,4.7-11.7,11-11.9c6.3-0.3,11.7,4.7,11.9,11c0.3,6.3-4.6,11.7-11,11.9h-0.5
	c-5.8,0.5-10.9-3.7-11.4-9.5c0,0,0,0,0,0L439.5,92.6L439.5,92.6z M455.9,92.6c-0.2-2.8-2.6-4.9-5.4-4.7c-2.8,0.2-4.9,2.6-4.7,5.4
	v0.2c0.3,2.8,2.8,4.7,5.6,4.4c2.4-0.3,4.3-2.2,4.4-4.6L455.9,92.6z"/>
<path class="st0" d="M465,96.7h6.4c0,1.4,1.4,2.4,3.3,2.4c1.4,0,2.4-0.7,2.4-1.9c0-0.8-0.6-1.6-1.4-1.7l-5-1.2c-3-0.4-5.3-2.9-5.3-6
	c0-3.8,3.3-6.7,8.8-6.7c6,0,9.3,2.6,9.3,6.4h-6.4c0-1.4-1.2-2.4-2.9-2.4c-1.7,0-2.4,0.7-2.4,1.7c0,0.9,0.7,1.7,1.7,1.9l5,1.4
	c2.9,0.5,5,2.8,5.3,5.7c0,4.3-3.3,7.2-9.1,7.2C469.1,103.7,465,100.8,465,96.7z"/>
<path class="st0" d="M426,112.5v-5.2c0.5,0.1,1.1,0.2,1.6,0.2c1.1,0,1.7-0.6,1.7-2V82.8h6.7v23.5c0,4.4-2.4,6.6-6.8,6.6
	C428.1,113,427,112.8,426,112.5z M428.5,76.9c0-2.3,1.8-4.2,4.1-4.2c2.3,0,4.2,1.8,4.2,4.1c0,2.3-1.8,4.2-4.1,4.2c0,0-0.1,0-0.1,0
	C430.4,81,428.6,79.2,428.5,76.9C428.5,77,428.5,76.9,428.5,76.9L428.5,76.9z"/>
<path class="st0" d="M485.7,103.7"/>
<path class="st0" d="M280.2,103.7"/>
</svg>
